<svg width="429" height="84" viewBox="0 0 429 84" fill="none" xmlns="http://www.w3.org/2000/svg">
<g clip-path="url(#clip0_4516_211)">
<path d="M76.2124 67.9662C76.2997 71.1299 75.7892 74.0451 74.6742 76.705C73.7943 78.9014 72.8741 80.3523 71.9068 81.0576C70.5298 82.0517 68.6424 82.5487 66.2377 82.5487C63.9875 82.5487 61.9657 81.568 60.179 79.6067C58.7147 77.9677 57.546 75.7109 56.666 72.8427C55.8466 70.1156 55.3764 66.1661 55.2622 60.9806V40.9506C55.2622 37.263 55.2891 33.3067 55.3495 29.0885C55.3495 27.8593 55.363 26.5427 55.3898 25.1389C55.4167 23.903 55.4368 23.2313 55.4368 23.1171C55.4368 22.7342 55.4033 22.0491 55.3495 21.0483C55.2891 20.0273 55.2622 19.3354 55.2622 18.9862C55.2622 18.4287 55.4637 17.9585 55.8734 17.5823C56.2832 17.1726 56.7399 16.9912 57.237 17.0517C58.4393 17.139 59.0103 17.7838 58.9498 18.9862C59.0976 20.2154 59.1715 21.8274 59.1715 23.8157C58.8155 40.0707 58.7147 49.5752 58.8625 52.3291C59.2386 60.7925 59.4334 65.0645 59.4334 65.1518C59.8432 68.7252 60.226 71.1568 60.5753 72.4464C61.1597 74.6429 61.9523 76.2079 62.9464 77.1483C64.3234 78.5253 65.6265 79.1701 66.8557 79.0828C68.3804 78.9954 69.4887 78.4917 70.194 77.5849C71.5105 75.7713 72.3636 72.9569 72.7397 69.1551C72.8875 67.5968 72.8875 64.4062 72.7397 59.5767L72.6994 54.3912C72.5516 48.8565 72.5113 44.8464 72.5651 42.3545C72.5651 40.8633 72.5651 37.4914 72.5651 32.2522C72.33 24.259 72.2024 19.94 72.1688 19.2951C72.1419 18.7645 72.3031 18.2674 72.6524 17.7973C73.0621 17.2398 73.5592 16.9644 74.1503 16.9644C75.2317 16.9644 75.9034 17.5487 76.1721 18.7242C76.3131 19.4563 76.3602 21.9752 76.2997 26.2808C76.2728 28.269 76.2124 32.8835 76.1251 40.1177C76.1855 50.6902 76.2124 56.2384 76.2124 56.7623V67.9662ZM122.754 20.5243C122.754 22.2237 122.714 33.0851 122.627 53.115C122.627 54.0554 122.7 57.0713 122.842 62.1695C122.875 62.868 122.875 64.0569 122.842 65.7227C122.815 67.6304 122.801 68.873 122.801 69.4574C122.801 69.9007 122.842 71.009 122.929 72.7957C122.989 74.1727 123.003 75.2138 122.976 75.9191C122.828 78.3775 122.714 79.7813 122.627 80.1373C122.271 81.7427 121.512 82.5487 120.343 82.5487C119.429 82.5487 118.435 80.6747 117.354 76.9266C111.879 57.2191 108.931 46.3376 108.521 44.2889C106.472 34.1262 105.431 28.9273 105.404 28.6922C105.23 27.4361 105.095 26.4823 105.008 25.8375C104.921 25.1389 104.833 24.9172 104.746 25.1792C104.719 25.2061 104.806 26.4084 105.008 28.7795C105.156 31.1842 105.23 32.7358 105.23 33.441V56.5474C105.23 61.2291 105.257 65.5212 105.317 69.4171C105.431 77.3229 105.431 81.3329 105.317 81.4539C104.968 82.0651 104.377 82.4211 103.557 82.5084C102.711 82.5621 102.14 82.3136 101.844 81.7628C101.609 81.3464 101.495 80.0769 101.495 77.9409L101.629 47.8489V36.8197C101.683 27.5637 101.717 22.3111 101.717 21.0483C101.717 18.3883 102.375 17.0382 103.691 17.0114C104.86 16.9778 105.928 18.6167 106.895 21.9282C106.956 22.1901 107.762 25.5889 109.314 32.1178C110.865 38.7071 111.772 42.4888 112.041 43.456C112.242 44.2419 112.739 46.0018 113.532 48.7221C114.351 51.6843 115.01 54.0688 115.507 55.8824C116.064 57.8773 116.695 60.2484 117.394 63.0024C118.126 65.8168 118.523 67.3214 118.583 67.5296C118.643 67.7916 118.818 68.5103 119.107 69.679C119.228 70.2365 119.315 70.6731 119.376 70.9956C119.517 71.7277 119.624 71.9628 119.678 71.7008C119.738 70.7067 119.738 69.726 119.678 68.7588L119.288 41.6089L119.067 28.5645C119.006 23.144 118.979 20.0676 118.979 19.3354C119.006 17.8711 119.59 17.139 120.732 17.139C122.082 17.139 122.754 18.2674 122.754 20.5243ZM152.342 35.3285C152.342 36.2958 152.443 38.284 152.651 41.2999C152.705 44.1412 152.766 46.9085 152.826 49.602C152.826 51.0126 152.665 56.675 152.342 66.6027C152.228 74.2466 152.389 78.2163 152.826 78.5118C155.197 79.741 157.441 79.244 159.55 77.0139C161.477 74.9921 163.049 72.0098 164.245 68.0535C166.005 62.4046 166.636 55.1838 166.139 46.3981C165.696 38.0825 164.366 31.6073 162.136 26.9793C159.912 22.3849 157.098 20.081 153.706 20.081C152.94 20.1146 152.551 20.2892 152.517 20.6117L152.342 35.3285ZM149.313 54.6532C149.279 54.0084 149.239 51.0798 149.179 45.8674C149.118 41.5081 149.091 38.0489 149.091 35.5032C149.206 32.8365 149.118 29.2765 148.829 24.8299C148.655 21.5185 148.581 19.4362 148.608 18.5899C148.608 17.3607 150.26 16.83 153.572 17.0114C156.735 17.0382 159.476 18.1533 161.786 20.3497C163.398 21.9013 164.923 24.6351 166.354 28.5645C168.349 33.9247 169.343 41.6089 169.343 51.6239C169.343 56.6616 169.094 60.7052 168.597 63.748C167.543 70.4582 165.622 75.5832 162.841 79.1231C161.202 81.2591 158.562 82.3875 154.935 82.5084C151.798 82.6226 149.938 82.3606 149.353 81.7158C148.917 81.4539 148.903 72.433 149.313 54.6532ZM198.004 79.385C198.327 79.6537 200.134 79.7074 203.411 79.5664C207.744 79.244 209.913 79.8418 209.913 81.3665C210.088 82.4211 206.542 82.7838 199.28 82.4614C196.352 82.5487 194.726 82.4614 194.404 82.1994C194.256 81.9643 194.169 80.1508 194.142 76.752C194.115 76.0467 194.129 73.8234 194.182 70.0753C194.243 65.8302 194.276 63.0024 194.276 61.5985C194.182 41.0648 193.934 28.222 193.524 23.0701C193.235 19.1742 194.095 17.186 196.117 17.0987C199.455 16.9509 201.685 16.9509 202.793 17.0987C202.968 17.0987 203.438 17.0987 204.204 17.0987C205.05 17.0987 205.709 17.1256 206.179 17.186C208.201 17.3338 208.986 17.9182 208.55 18.9391C208.254 19.6713 206.018 19.9803 201.826 19.8661C198.609 19.7452 197.024 19.9937 197.084 20.6117L197.393 33.656C197.393 36.4368 197.406 39.2243 197.433 42.0052C197.494 43.9934 199.381 44.7591 203.102 44.2889C203.835 44.3494 204.466 44.8867 204.99 45.9144C205.608 47.1705 205.299 47.775 204.07 47.7146C201.759 47.6004 200.335 47.5802 199.811 47.6743C198.958 47.8153 198.474 47.9027 198.36 47.9362C198.125 48.0236 198.004 48.2251 198.004 48.5475C197.568 64.3323 197.346 72.8696 197.346 74.1592C197.38 77.2961 197.595 79.0358 198.004 79.385ZM237.131 21.2699C236.922 21.505 236.848 25.2531 236.909 32.5141C236.936 39.7214 236.996 43.3486 237.084 43.409C237.144 43.4359 237.607 43.2612 238.487 42.8851C239.575 42.4149 240.496 41.8843 241.255 41.2999C242.43 40.3662 243.216 39.5468 243.626 38.8415C244.452 37.5518 244.949 35.7651 245.124 33.4814C245.386 30.5528 244.929 27.7585 243.76 25.0919C242.88 23.1574 241.429 21.814 239.414 21.0483C238.272 20.6385 237.507 20.7124 237.131 21.2699ZM243.236 61.7262C243.377 62.2232 245.238 68.067 248.811 79.2574C249.107 80.1911 249.208 80.8695 249.12 81.2792C248.946 82.1255 248.24 82.5487 247.011 82.5487C246.279 82.5487 245.607 81.7628 244.989 80.1776C244.842 79.8283 244.492 78.6394 243.935 76.6176C243.29 74.307 242.806 72.6546 242.484 71.6538C241.664 69.1081 240.932 66.4012 240.287 63.5263C240.026 62.2971 239.455 59.664 238.575 55.6204C237.728 51.5835 237.171 49.6625 236.909 49.8707C236.674 49.5483 236.922 57.9915 237.654 75.2138C237.628 79.197 237.52 81.333 237.345 81.6285C236.875 82.4748 236.103 82.7569 235.021 82.4614C234.141 82.2263 233.698 81.1314 233.698 79.1701L234.229 64.0569L233.967 46.2637C233.967 43.8053 233.88 40.1446 233.698 35.2815C233.644 33.703 233.631 32.0439 233.658 30.3177C233.685 28.5041 233.698 27.51 233.698 27.3353C233.644 25.9852 233.611 24.9777 233.611 24.2993C233.497 22.5126 233.524 20.7124 233.698 18.8988C233.819 17.757 234.813 17.186 236.687 17.186C238.682 17.186 240.536 17.6831 242.269 18.6772C243.646 19.4966 244.949 20.746 246.178 22.4118C247.669 25.1053 248.475 27.6712 248.59 30.1027C248.737 32.7626 248.388 35.4897 247.535 38.2705C247.072 39.7953 246.145 41.3335 244.768 42.8851C243.72 44.1143 242.618 45.0614 241.476 45.7398C240.039 46.4988 239.367 46.9824 239.455 47.1907C239.394 47.278 240.657 52.1209 243.236 61.7262Z" stroke="black" stroke-width="1.23715"/>
<path d="M76.2088 67.979C76.2962 71.136 75.7857 74.0444 74.6774 76.711C73.7975 78.9142 72.8772 80.3651 71.91 81.0636C70.5263 82.051 68.6388 82.5414 66.2409 82.5414C63.984 82.5414 61.9555 81.5674 60.1688 79.6128C58.7179 77.9671 57.5492 75.7102 56.6759 72.8421C55.8498 70.1217 55.3729 66.1721 55.252 60.9934V40.95C55.252 37.2624 55.2855 33.3128 55.3594 29.1013C55.3594 27.8654 55.3661 26.5488 55.3863 25.1517C55.4199 23.9158 55.44 23.2441 55.44 23.1366C55.44 22.747 55.4132 22.0552 55.3594 21.0678C55.2855 20.0334 55.252 19.3415 55.252 18.999C55.252 18.4482 55.4535 17.978 55.8699 17.6018C56.2796 17.1921 56.7364 17.0108 57.2402 17.0645C58.4358 17.1585 59.0134 17.8034 58.9597 18.999C59.1008 20.2349 59.1747 21.847 59.1747 23.8352C58.8119 40.0835 58.7045 49.588 58.8522 52.3419C59.2418 60.7986 59.4433 65.0706 59.4433 65.1579C59.8329 68.7246 60.2091 71.1494 60.5718 72.4391C61.1629 74.6422 61.9488 76.214 62.9361 77.1409C64.3131 78.5246 65.6229 79.1694 66.8588 79.0754C68.3769 78.9881 69.4919 78.4978 70.1905 77.5977C71.5137 75.7707 72.3668 72.963 72.7429 69.1612C72.884 67.6029 72.884 64.4056 72.7429 59.5694L72.6892 54.3839C72.5414 48.8491 72.5011 44.8458 72.5548 42.374C72.5548 40.8694 72.5548 37.5042 72.5548 32.2717C72.3197 24.2651 72.1921 19.9393 72.1787 19.2945C72.1384 18.7773 72.2996 18.287 72.6623 17.8168C73.0519 17.266 73.5489 16.9839 74.14 16.9839C75.2282 16.9839 75.8999 17.5683 76.1551 18.7303C76.3163 19.4692 76.3566 21.9813 76.2895 26.2802C76.2693 28.2684 76.2156 32.8829 76.1282 40.1171C76.182 50.6896 76.2088 56.2378 76.2088 56.7751V67.979Z" fill="#2B2B2B"/>
<path d="M122.757 20.53C122.757 22.2361 122.71 33.0974 122.623 53.1207C122.623 54.0543 122.69 57.0703 122.838 62.1751C122.872 62.8737 122.872 64.0559 122.838 65.7217C122.798 67.6226 122.784 68.8652 122.784 69.4563C122.784 69.9064 122.824 71.0146 122.919 72.7879C122.986 74.1716 123.006 75.206 122.972 75.9046C122.824 78.3764 122.71 79.787 122.623 80.1228C122.26 81.7349 121.501 82.5409 120.339 82.5409C119.426 82.5409 118.432 80.6736 117.357 76.9256C111.876 57.2247 108.927 46.3433 108.517 44.2812C106.475 34.1251 105.434 28.9329 105.401 28.6978C105.219 27.4485 105.085 26.4947 104.998 25.8498C104.904 25.1513 104.823 24.9296 104.756 25.1782C104.716 25.2185 104.796 26.4141 104.998 28.7784C105.159 31.1831 105.24 32.7414 105.24 33.4534V56.5598C105.24 61.2348 105.266 65.5269 105.32 69.4294C105.428 77.3286 105.428 81.3319 105.32 81.4394C104.957 82.0708 104.366 82.42 103.547 82.5141C102.701 82.5678 102.136 82.3126 101.854 81.7618C101.619 81.352 101.505 80.0825 101.505 77.9465L101.612 47.8546V36.8388C101.68 27.5828 101.72 22.3234 101.72 21.0674C101.72 18.4007 102.371 17.0506 103.681 17.0103C104.863 16.9969 105.938 18.6358 106.905 21.9271C106.959 22.1958 107.765 25.6013 109.323 32.1369C110.862 38.7128 111.768 42.481 112.037 43.4483C112.232 44.2543 112.736 46.0209 113.542 48.7412C114.348 51.6967 114.999 54.0812 115.503 55.8881C116.054 57.8763 116.685 60.2541 117.384 63.008C118.116 65.8224 118.519 67.327 118.593 67.5218C118.647 67.7905 118.814 68.5092 119.103 69.6713C119.224 70.2288 119.318 70.6654 119.372 70.9878C119.513 71.7266 119.614 71.9685 119.668 71.7132C119.735 70.7124 119.735 69.725 119.668 68.7578L119.291 41.6213L119.05 28.5635C118.996 23.1563 118.969 20.0867 118.969 19.3478C119.003 17.8835 119.594 17.1447 120.742 17.1447C122.086 17.1447 122.757 18.2731 122.757 20.53Z" fill="#2B2B2B"/>
<path d="M152.337 35.3341C152.337 36.3014 152.444 38.2896 152.659 41.2988C152.713 44.1468 152.766 46.9141 152.82 49.6009C152.82 51.0182 152.659 56.6873 152.337 66.6082C152.229 74.2589 152.39 78.2286 152.82 78.5107C155.198 79.7466 157.441 79.2496 159.537 77.0061C161.472 75.0044 163.037 72.0221 164.239 68.0591C165.992 62.4034 166.617 55.1827 166.12 46.4036C165.69 38.0948 164.36 31.6196 162.143 26.9782C159.9 22.3973 157.092 20.1001 153.707 20.1001C152.934 20.1202 152.538 20.2881 152.525 20.6105L152.337 35.3341ZM149.3 54.6521C149.28 54.0072 149.233 51.0786 149.166 45.8663C149.112 41.5137 149.086 38.0679 149.086 35.5222C149.206 32.8556 149.119 29.2888 148.817 24.8288C148.656 21.5375 148.582 19.4552 148.602 18.5955C148.602 17.3595 150.254 16.8356 153.572 17.0103C156.743 17.0506 159.483 18.1656 161.794 20.3687C163.406 21.9136 164.924 24.6407 166.362 28.5634C168.35 33.9235 169.344 41.6077 169.344 51.616C169.344 56.6672 169.089 60.7175 168.592 63.7603C167.53 70.4638 165.616 75.5821 162.842 79.1286C161.189 81.2646 158.556 82.3864 154.943 82.514C151.806 82.6215 149.945 82.3528 149.354 81.708C148.904 81.4594 148.884 72.4386 149.3 54.6521Z" fill="#2B2B2B"/>
<path d="M198.004 79.3976C198.327 79.6528 200.127 79.7066 203.405 79.5588C207.737 79.2364 209.907 79.8409 209.907 81.3589C210.082 82.4135 206.535 82.7829 199.267 82.4605C196.345 82.5478 194.727 82.4605 194.404 82.1918C194.256 81.9635 194.169 80.1499 194.135 76.7645C194.115 76.0525 194.135 73.8225 194.189 70.0744C194.243 65.8293 194.27 63.0082 194.27 61.6111C194.176 41.0841 193.927 28.2413 193.518 23.0826C193.229 19.1801 194.095 17.1919 196.124 17.118C199.455 16.9568 201.672 16.9568 202.787 17.118C202.962 17.118 203.438 17.118 204.211 17.118C205.051 17.118 205.702 17.1448 206.172 17.1986C208.194 17.3464 208.98 17.924 208.537 18.945C208.248 19.6839 206.011 19.9928 201.82 19.8854C198.596 19.7645 197.017 20.0063 197.091 20.6108L197.386 33.6686C197.386 36.4494 197.4 39.2235 197.44 41.9976C197.494 44.0059 199.381 44.765 203.109 44.2813C203.841 44.3552 204.466 44.8993 204.99 45.9203C205.595 47.1763 205.292 47.7742 204.077 47.7204C201.766 47.5995 200.342 47.5794 199.805 47.6667C198.958 47.8279 198.475 47.9219 198.354 47.9354C198.119 48.0294 198.004 48.2309 198.004 48.5533C197.575 64.3382 197.36 72.8687 197.36 74.1584C197.373 77.2952 197.588 79.0416 198.004 79.3976Z" fill="#2B2B2B"/>
<path d="M237.129 21.2826C236.914 21.5177 236.84 25.2591 236.914 32.5134C236.927 39.7341 236.981 43.368 237.075 43.4217C237.142 43.4419 237.619 43.2605 238.499 42.8844C239.574 42.4209 240.494 41.8903 241.266 41.2992C242.428 40.3722 243.214 39.5528 243.631 38.8542C244.45 37.5645 244.947 35.7778 245.108 33.4806C245.377 30.5655 244.927 27.7712 243.765 25.0979C242.885 23.1634 241.434 21.82 239.412 21.0677C238.264 20.658 237.505 20.7318 237.129 21.2826ZM243.228 61.7187C243.369 62.2225 245.229 68.0729 248.816 79.2634C249.098 80.197 249.199 80.8687 249.112 81.2785C248.93 82.1181 248.232 82.5413 247.016 82.5413C246.277 82.5413 245.605 81.7554 245.001 80.1769C244.84 79.8209 244.477 78.6387 243.926 76.6303C243.281 74.3197 242.798 72.6673 242.475 71.6598C241.669 69.1208 240.944 66.4071 240.299 63.5188C240.03 62.3031 239.453 59.67 238.579 55.6197C237.72 51.5895 237.162 49.6752 236.914 49.87C236.679 49.5476 236.927 57.9975 237.666 75.2063C237.626 79.2029 237.518 81.3456 237.344 81.6277C236.873 82.4674 236.094 82.7428 235.006 82.4607C234.126 82.2256 233.69 81.1307 233.69 79.1559L234.227 64.0562L233.958 46.2697C233.958 43.818 233.864 40.1573 233.69 35.2808C233.636 33.709 233.622 32.0566 233.663 30.3371C233.676 28.5101 233.69 27.5093 233.69 27.3279C233.636 25.9845 233.609 24.9837 233.609 24.3187C233.501 22.532 233.528 20.7318 233.69 18.9183C233.81 17.7764 234.818 17.1987 236.699 17.1987C238.687 17.1987 240.541 17.6958 242.26 18.6765C243.637 19.5026 244.947 20.7453 246.183 22.4111C247.668 25.118 248.474 27.6772 248.601 30.0953C248.742 32.7686 248.386 35.4957 247.526 38.29C247.056 39.8147 246.136 41.3462 244.759 42.8844C243.718 44.1203 242.623 45.0741 241.481 45.7323C240.044 46.5048 239.372 46.9884 239.466 47.1832C239.392 47.2772 240.648 52.1202 243.228 61.7187Z" fill="#2B2B2B"/>
<path d="M1.01394 79.9599C0.866164 79.5703 0.906465 77.6627 1.12141 74.237C1.36993 70.0457 1.45726 67.332 1.39009 66.0961C1.39009 63.8056 1.39009 60.8972 1.39009 57.3641C1.28261 51.7621 1.20873 47.2819 1.17514 43.9302C1.02737 32.3434 0.9602 26.0295 0.9602 24.9883C0.886313 20.7634 0.886313 17.5728 0.9602 15.4234C0.9602 13.5292 0.9602 11.0641 0.9602 8.03474C0.9602 3.82993 1.15499 1.44541 1.55129 0.887905C2.10208 0.189342 2.85438 -0.0927695 3.80819 0.0281348C4.70154 0.209493 5.33965 0.753566 5.7158 1.66707C5.7158 1.77454 5.7158 4.35385 5.7158 9.405L5.44713 44.3063C5.51429 49.6664 5.56803 53.9115 5.60833 57.0416C5.74939 59.5135 5.78297 61.8644 5.7158 64.081C5.7158 66.4857 5.82328 67.7015 6.03822 67.735C6.14569 67.7753 7.07263 62.3816 8.83247 51.5606C10.3505 42.9495 11.4252 36.7229 12.0566 32.8875C12.735 29.22 13.1851 26.9766 13.4 26.1705C14.3471 22.5031 15.7375 20.6626 17.5645 20.6626C19.2639 20.844 20.8155 24.9346 22.2126 32.9412C24.2009 45.7706 25.907 54.8586 27.3444 60.212C28.1639 64.1347 28.7482 65.955 29.0908 65.6662C29.2319 65.5252 29.1983 58.9694 28.9833 45.999L28.7147 12.6291L28.1504 3.35974C28.1504 1.17673 28.9699 0.0818704 30.6223 0.0818704C31.8582 0.0818704 32.6374 0.847602 32.9598 2.36564C33.1344 3.21197 33.2284 4.75687 33.2284 7.01377L32.906 22.8926L33.3359 44.1988L33.0135 70.6368C33.1546 76.0305 33.1881 79.0665 33.121 79.7449C32.9732 80.8062 32.2679 81.3302 30.9984 81.3302C29.8297 81.3302 29.0908 80.9674 28.7684 80.2554C27.8549 78.2874 26.4309 74.0221 24.4964 67.4664C24.0665 65.9819 23.4486 63.1406 22.6425 58.9493C21.7962 55.9266 21.1648 53.2667 20.7349 50.9695C18.693 36.3736 17.6317 29.0924 17.5645 29.126C16.0196 33.4248 14.5419 41.3979 13.1313 53.0383C12.285 58.9157 11.1028 64.3228 9.58477 69.2665C8.41602 73.0146 7.1801 76.5208 5.87701 79.7987C5.42697 80.8532 4.5672 81.3637 3.2977 81.3302C2.09537 81.2898 1.33635 80.8398 1.01394 79.9599Z" fill="#2B2B2B"/>
<path d="M332.605 79.3854C332.927 79.6541 334.734 79.7079 338.012 79.5668C342.345 79.2444 344.514 79.8422 344.514 81.3669C344.689 82.4215 341.142 82.7842 333.881 82.4618C330.953 82.5491 329.327 82.4618 329.005 82.1999C328.857 81.9648 328.77 80.1512 328.743 76.7524C328.716 76.0471 328.729 73.8238 328.783 70.0757C328.843 65.8306 328.877 63.0028 328.877 61.5989C328.783 41.0652 328.534 28.2224 328.125 23.0705C327.836 19.1747 328.696 17.1864 330.718 17.0991C334.056 16.9513 336.286 16.9513 337.394 17.0991C337.569 17.0991 338.039 17.0991 338.805 17.0991C339.651 17.0991 340.309 17.126 340.78 17.1864C342.801 17.3342 343.587 17.9186 343.151 18.9396C342.855 19.6717 340.618 19.9807 336.427 19.8665C333.209 19.7456 331.624 19.9941 331.685 20.6121L331.994 33.6564C331.994 36.4372 332.007 39.2248 332.034 42.0056C332.094 43.9938 333.982 44.7595 337.703 44.2894C338.435 44.3498 339.067 44.8872 339.591 45.9149C340.209 47.1709 339.9 47.7755 338.67 47.715C336.36 47.6008 334.936 47.5807 334.412 47.6747C333.559 47.8158 333.075 47.9031 332.961 47.9367C332.726 48.024 332.605 48.2255 332.605 48.5479C332.168 64.3327 331.947 72.87 331.947 74.1597C331.98 77.2965 332.195 79.0362 332.605 79.3854ZM371.731 21.2703C371.523 21.5054 371.449 25.2535 371.51 32.5145C371.536 39.7218 371.597 43.349 371.684 43.4094C371.745 43.4363 372.208 43.2617 373.088 42.8855C374.176 42.4153 375.096 41.8847 375.855 41.3003C377.031 40.3667 377.817 39.5472 378.227 38.8419C379.053 37.5522 379.55 35.7655 379.724 33.4818C379.986 30.5532 379.53 27.7589 378.361 25.0923C377.481 23.1578 376.03 21.8144 374.015 21.0487C372.873 20.6389 372.107 20.7128 371.731 21.2703ZM377.837 61.7266C377.978 62.2236 379.839 68.0674 383.412 79.2578C383.708 80.1915 383.808 80.8699 383.721 81.2796C383.546 82.126 382.841 82.5491 381.612 82.5491C380.88 82.5491 380.208 81.7632 379.59 80.178C379.442 79.8288 379.093 78.6399 378.536 76.6181C377.891 74.3074 377.407 72.6551 377.085 71.6542C376.265 69.1085 375.533 66.4016 374.888 63.5267C374.626 62.2975 374.055 59.6645 373.175 55.6209C372.329 51.584 371.772 49.6629 371.51 49.8711C371.274 49.5487 371.523 57.9919 372.255 75.2142C372.228 79.1974 372.121 81.3334 371.946 81.6289C371.476 82.4752 370.704 82.7574 369.622 82.4618C368.742 82.2267 368.299 81.1319 368.299 79.1705L368.83 64.0574L368.568 46.2641C368.568 43.8057 368.48 40.145 368.299 35.2819C368.245 33.7034 368.232 32.0443 368.259 30.3181C368.285 28.5045 368.299 27.5104 368.299 27.3358C368.245 25.9856 368.212 24.9781 368.212 24.2997C368.097 22.513 368.124 20.7128 368.299 18.8993C368.42 17.7574 369.414 17.1864 371.288 17.1864C373.283 17.1864 375.137 17.6835 376.87 18.6776C378.247 19.4971 379.55 20.7464 380.779 22.4122C382.27 25.1057 383.076 27.6716 383.19 30.1031C383.338 32.7631 382.989 35.4901 382.143 38.271C381.672 39.7957 380.745 41.3339 379.368 42.8855C378.321 44.1147 377.219 45.0618 376.077 45.7402C374.64 46.4992 373.968 46.9829 374.055 47.1911C373.995 47.2784 375.258 52.1213 377.837 61.7266ZM426.663 82.5491C425.816 82.6969 425.01 82.0118 424.244 80.487C421.961 75.9732 419.724 70.7071 417.527 64.6686C414.216 53.72 412.416 48.7225 412.12 49.6898C412.12 49.6898 412.12 50.6033 412.12 52.4169C412.154 52.8535 412.181 53.4983 412.208 54.3514C412.268 55.4932 412.295 56.3396 412.295 56.8971C412.033 65.1254 411.818 70.3646 411.637 72.6215C411.61 73.2932 411.596 74.2806 411.596 75.5635C411.596 77.236 411.596 78.2637 411.596 78.6399C411.563 81.246 411.025 82.5491 409.971 82.5491C408.708 82.5491 408.083 81.0109 408.083 77.9413C408.083 77.2965 408.124 75.7449 408.211 73.2797C408.332 70.6467 408.406 68.0808 408.433 65.5955C408.46 63.6879 408.52 60.981 408.607 57.468C408.728 54.217 408.782 52.3161 408.782 51.7586C408.782 51.1138 408.668 45.6059 408.433 35.2416C408.198 24.9915 408.083 19.6583 408.083 19.2485C408.083 18.2544 408.654 17.5626 409.796 17.1864C410.878 16.8304 411.684 17.0521 412.208 17.8447C412.268 17.9589 412.295 21.183 412.295 27.5104C411.885 37.4918 411.818 42.4758 412.08 42.4422C412.456 42.4153 413.82 39.8226 416.164 34.6707C416.983 33.0317 417.924 31.0972 418.978 28.8672C420.087 26.617 420.832 25.1057 421.215 24.3467C423.559 19.571 425.225 17.173 426.226 17.1394C427.509 17.1394 428.154 17.7439 428.154 18.9396C428.1 19.3829 427.67 20.2628 426.884 21.5793C425.977 23.1309 425.433 24.0646 425.259 24.387C425.024 24.9176 424.466 25.9588 423.586 27.5104C422.679 29.062 422.135 30.0427 421.961 30.4524C416.634 40.4674 414.142 45.579 414.491 45.7805C414.465 46.338 416.298 51.7586 419.986 62.0355C421.215 65.3134 422.941 69.1824 425.171 73.6357C427.072 77.3502 428.066 79.4929 428.154 80.0437C428.362 81.4543 427.865 82.2872 426.663 82.5491Z" stroke="black" stroke-width="1.23715"/>
<path d="M332.606 79.3976C332.928 79.6528 334.729 79.7066 338.006 79.5588C342.339 79.2364 344.508 79.8409 344.508 81.3589C344.683 82.4135 341.137 82.7829 333.869 82.4605C330.947 82.5478 329.328 82.4605 329.006 82.1918C328.858 81.9635 328.771 80.1499 328.737 76.7645C328.717 76.0525 328.737 73.8225 328.791 70.0744C328.845 65.8293 328.871 63.0082 328.871 61.6111C328.777 41.0841 328.529 28.2413 328.119 23.0826C327.83 19.1801 328.697 17.1919 330.725 17.118C334.057 16.9568 336.273 16.9568 337.388 17.118C337.563 17.118 338.04 17.118 338.812 17.118C339.652 17.118 340.304 17.1448 340.774 17.1986C342.796 17.3464 343.582 17.924 343.138 18.945C342.849 19.6839 340.613 19.9928 336.421 19.8854C333.197 19.7645 331.619 20.0063 331.693 20.6108L331.988 33.6686C331.988 36.4494 332.001 39.2235 332.042 41.9976C332.096 44.0059 333.983 44.765 337.711 44.2813C338.443 44.3552 339.068 44.8993 339.592 45.9203C340.196 47.1763 339.894 47.7742 338.678 47.7204C336.368 47.5995 334.944 47.5794 334.406 47.6667C333.56 47.8279 333.076 47.9219 332.955 47.9354C332.72 48.0294 332.606 48.2309 332.606 48.5533C332.176 64.3382 331.961 72.8687 331.961 74.1584C331.975 77.2952 332.19 79.0416 332.606 79.3976Z" fill="#2B2B2B"/>
<path d="M371.73 21.2826C371.515 21.5177 371.441 25.2591 371.515 32.5134C371.528 39.7341 371.582 43.368 371.676 43.4217C371.743 43.4419 372.22 43.2605 373.1 42.8844C374.175 42.4209 375.095 41.8903 375.867 41.2992C377.029 40.3722 377.815 39.5528 378.232 38.8542C379.051 37.5645 379.548 35.7778 379.709 33.4806C379.978 30.5655 379.528 27.7712 378.366 25.0979C377.486 23.1634 376.035 21.82 374.013 21.0677C372.865 20.658 372.106 20.7318 371.73 21.2826ZM377.829 61.7187C377.97 62.2225 379.83 68.0729 383.417 79.2634C383.699 80.197 383.8 80.8687 383.713 81.2785C383.531 82.1181 382.833 82.5413 381.617 82.5413C380.878 82.5413 380.206 81.7554 379.602 80.1769C379.441 79.8209 379.078 78.6387 378.527 76.6303C377.882 74.3197 377.399 72.6673 377.076 71.6598C376.27 69.1208 375.545 66.4071 374.9 63.5188C374.631 62.3031 374.054 59.67 373.181 55.6197C372.321 51.5895 371.763 49.6752 371.515 49.87C371.28 49.5476 371.528 57.9975 372.267 75.2063C372.227 79.2029 372.119 81.3456 371.945 81.6277C371.474 82.4674 370.695 82.7428 369.607 82.4607C368.727 82.2256 368.291 81.1307 368.291 79.1559L368.828 64.0562L368.559 46.2697C368.559 43.818 368.465 40.1573 368.291 35.2808C368.237 33.709 368.223 32.0566 368.264 30.3371C368.277 28.5101 368.291 27.5093 368.291 27.3279C368.237 25.9845 368.21 24.9837 368.21 24.3187C368.103 22.532 368.129 20.7318 368.291 18.9183C368.411 17.7764 369.419 17.1987 371.3 17.1987C373.288 17.1987 375.142 17.6958 376.861 18.6765C378.238 19.5026 379.548 20.7453 380.784 22.4111C382.269 25.118 383.075 27.6772 383.202 30.0953C383.343 32.7686 382.987 35.4957 382.128 38.29C381.657 39.8147 380.737 41.3462 379.36 42.8844C378.319 44.1203 377.224 45.0741 376.082 45.7323C374.645 46.5048 373.973 46.9884 374.067 47.1832C373.993 47.2772 375.249 52.1202 377.829 61.7187Z" fill="#2B2B2B"/>
<path d="M426.657 82.5412C425.811 82.7024 425.005 82.024 424.239 80.4993C421.962 75.9855 419.725 70.7127 417.522 64.6741C414.204 53.7322 412.404 48.7415 412.121 49.7088C412.121 49.7088 412.121 50.6156 412.121 52.4224C412.155 52.8523 412.182 53.4971 412.202 54.3569C412.269 55.5055 412.31 56.3586 412.31 56.9093C412.041 65.1309 411.813 70.3701 411.638 72.627C411.598 73.292 411.584 74.2659 411.584 75.5556C411.584 77.2416 411.584 78.2693 411.584 78.6454C411.564 81.2449 411.027 82.5412 409.972 82.5412C408.716 82.5412 408.091 81.0098 408.091 77.9468C408.091 77.302 408.125 75.7437 408.199 73.2718C408.32 70.6388 408.4 68.0796 408.441 65.5876C408.454 63.6935 408.508 60.9865 408.602 57.4736C408.723 54.2158 408.79 52.3082 408.79 51.7507C408.79 51.1059 408.669 45.6114 408.441 35.2539C408.205 25.0105 408.091 19.684 408.091 19.2675C408.091 18.2667 408.656 17.5749 409.784 17.1987C410.872 16.8427 411.678 17.0577 412.202 17.8435C412.269 17.9712 412.31 21.1953 412.31 27.5159C411.893 37.4973 411.813 42.4746 412.068 42.4545C412.457 42.4209 413.821 39.8214 416.152 34.6628C416.971 33.0373 417.911 31.1095 418.973 28.8862C420.081 26.6293 420.827 25.118 421.203 24.3455C423.547 19.5832 425.22 17.1853 426.227 17.145C427.517 17.145 428.162 17.7495 428.162 18.9451C428.088 19.3952 427.658 20.2751 426.872 21.5782C425.972 23.1365 425.434 24.0769 425.26 24.3993C425.025 24.9232 424.467 25.9576 423.594 27.5159C422.681 29.0743 422.13 30.0617 421.955 30.4714C416.635 40.4864 414.143 45.5913 414.486 45.7861C414.466 46.3436 416.299 51.7642 419.994 62.0411C421.21 65.319 422.936 69.1812 425.179 73.6211C427.073 77.349 428.068 79.4917 428.162 80.0425C428.356 81.4598 427.853 82.286 426.657 82.5412Z" fill="#2B2B2B"/>
<path d="M272.251 79.9599C272.103 79.5703 272.143 77.6627 272.358 74.237C272.607 70.0457 272.694 67.332 272.627 66.0961C272.627 63.8056 272.627 60.8972 272.627 57.3641C272.519 51.7621 272.446 47.2819 272.412 43.9302C272.264 32.3434 272.197 26.0295 272.197 24.9883C272.123 20.7634 272.123 17.5728 272.197 15.4234C272.197 13.5292 272.197 11.0641 272.197 8.03474C272.197 3.82993 272.392 1.44541 272.788 0.887905C273.339 0.189342 274.091 -0.0927695 275.045 0.0281348C275.938 0.209493 276.576 0.753566 276.953 1.66707C276.953 1.77454 276.953 4.35385 276.953 9.405L276.684 44.3063C276.751 49.6664 276.805 53.9115 276.845 57.0416C276.986 59.5135 277.02 61.8644 276.953 64.081C276.953 66.4857 277.06 67.7015 277.275 67.735C277.383 67.7753 278.309 62.3816 280.069 51.5606C281.587 42.9495 282.662 36.7229 283.293 32.8875C283.972 29.22 284.422 26.9766 284.637 26.1705C285.584 22.5031 286.974 20.6626 288.801 20.6626C290.501 20.844 292.052 24.9346 293.449 32.9412C295.438 45.7706 297.144 54.8586 298.581 60.212C299.401 64.1347 299.985 65.955 300.328 65.6662C300.469 65.5252 300.435 58.9694 300.22 45.999L299.951 12.6291L299.387 3.35974C299.387 1.17673 300.207 0.0818704 301.859 0.0818704C303.095 0.0818704 303.874 0.847602 304.197 2.36564C304.371 3.21197 304.465 4.75687 304.465 7.01377L304.143 22.8926L304.573 44.1988L304.25 70.6368C304.391 76.0305 304.425 79.0665 304.358 79.7449C304.21 80.8062 303.505 81.3302 302.235 81.3302C301.066 81.3302 300.328 80.9674 300.005 80.2554C299.092 78.2874 297.668 74.0221 295.733 67.4664C295.303 65.9819 294.685 63.1406 293.879 58.9493C293.033 55.9266 292.402 53.2667 291.972 50.9695C289.93 36.3736 288.868 29.0924 288.801 29.126C287.256 33.4248 285.779 41.3979 284.368 53.0383C283.522 58.9157 282.34 64.3228 280.822 69.2665C279.653 73.0146 278.417 76.5208 277.114 79.7987C276.664 80.8532 275.804 81.3637 274.535 81.3302C273.332 81.2898 272.573 80.8398 272.251 79.9599Z" fill="#2B2B2B"/>
</g>
<defs>
<clipPath id="clip0_4516_211">
<rect width="429" height="84" fill="white"/>
</clipPath>
</defs>
</svg>
