<svg width="536" height="418" viewBox="0 0 536 418" fill="none" xmlns="http://www.w3.org/2000/svg">
<mask id="mask0_4516_82" style="mask-type:luminance" maskUnits="userSpaceOnUse" x="0" y="0" width="405" height="418">
<path d="M0 0.00439453H404.668V417.667H0V0.00439453Z" fill="white"/>
</mask>
<g mask="url(#mask0_4516_82)">
<mask id="mask1_4516_82" style="mask-type:luminance" maskUnits="userSpaceOnUse" x="-50" y="-43" width="505" height="505">
<path d="M-49.8074 59.1224L352.613 -42.7988L454.534 359.622L52.1211 461.543L-49.8074 59.1224Z" fill="white"/>
</mask>
<g mask="url(#mask1_4516_82)">
<mask id="mask2_4516_82" style="mask-type:luminance" maskUnits="userSpaceOnUse" x="-50" y="-43" width="505" height="505">
<path d="M-49.8074 59.1224L352.613 -42.7988L454.534 359.622L52.1211 461.543L-49.8074 59.1224Z" fill="white"/>
</mask>
<g mask="url(#mask2_4516_82)">
<path d="M151.185 8.21224C206.685 -5.84036 262.635 3.92684 308.215 31.0894C353.795 58.2447 389.021 102.795 403.081 158.302L400.898 158.853C386.998 103.948 352.156 59.8834 307.062 33.0182C261.975 6.15293 206.634 -3.51276 151.737 10.3948L151.185 8.21224ZM343.491 360.89C330.954 372.601 316.865 382.839 301.428 391.243C286.462 399.394 270.255 405.825 252.998 410.19C197.498 424.25 141.549 414.483 95.9684 387.321C50.3809 360.165 15.1624 315.615 1.10254 260.108L3.28511 259.556C17.1854 314.454 52.0269 358.527 97.1214 385.392C142.209 412.257 197.549 421.923 252.447 408.015C269.545 403.686 285.577 397.334 300.362 389.278C315.611 380.969 329.555 370.839 341.969 359.252L343.499 360.89H343.491Z" fill="#545454"/>
</g>
</g>
</g>
<path d="M283.79 320.16C283.536 320.16 283.312 320.065 283.123 319.87C282.927 319.681 282.833 319.435 282.833 319.145V301.452C282.833 301.147 282.927 300.901 283.123 300.727C283.333 300.553 283.558 300.466 283.79 300.466C284.153 300.466 284.428 300.633 284.602 300.959L292.52 315.374V301.452C292.52 301.147 292.615 300.901 292.81 300.727C293.021 300.553 293.246 300.466 293.478 300.466C293.724 300.466 293.949 300.567 294.145 300.756C294.333 300.952 294.435 301.184 294.435 301.452V319.145C294.435 319.478 294.326 319.725 294.116 319.899C293.92 320.073 293.71 320.16 293.478 320.16C293.086 320.16 292.818 320 292.665 319.667L284.747 305.252V319.145C284.747 319.478 284.639 319.725 284.428 319.899C284.232 320.073 284.022 320.16 283.79 320.16Z" fill="#2B2B2B"/>
<path d="M305.818 298.609C305.332 298.609 304.948 298.435 304.658 298.087C304.368 297.739 304.223 297.362 304.223 296.956C304.223 296.492 304.375 296.101 304.687 295.767C304.991 295.441 305.368 295.274 305.818 295.274C306.34 295.274 306.731 295.448 307.007 295.796C307.297 296.144 307.442 296.536 307.442 296.956C307.442 297.406 307.283 297.79 306.978 298.116C306.666 298.45 306.282 298.609 305.818 298.609ZM311.097 298.609C310.647 298.609 310.263 298.45 309.936 298.116C309.625 297.79 309.472 297.406 309.472 296.956C309.472 296.492 309.625 296.101 309.936 295.767C310.241 295.441 310.633 295.274 311.097 295.274C311.597 295.274 311.981 295.448 312.257 295.796C312.547 296.144 312.692 296.536 312.692 296.956C312.692 297.406 312.532 297.79 312.228 298.116C311.938 298.45 311.561 298.609 311.097 298.609ZM308.457 320.16C307.391 320.16 306.434 319.891 305.586 319.348C304.752 318.811 304.085 318.093 303.584 317.201C303.099 316.317 302.859 315.359 302.859 314.33V301.481C302.859 301.213 302.946 300.981 303.12 300.785C303.294 300.574 303.526 300.466 303.817 300.466C304.085 300.466 304.31 300.574 304.484 300.785C304.672 300.981 304.774 301.213 304.774 301.481V314.33C304.774 315.011 304.926 315.635 305.238 316.215C305.564 316.795 306.006 317.274 306.572 317.636C307.13 317.984 307.761 318.158 308.457 318.158C309.168 318.158 309.799 317.977 310.342 317.607C310.901 317.245 311.336 316.766 311.648 316.186C311.974 315.606 312.141 314.99 312.141 314.33V301.481C312.141 301.213 312.228 300.981 312.402 300.785C312.576 300.574 312.808 300.466 313.098 300.466C313.366 300.466 313.591 300.574 313.765 300.785C313.954 300.981 314.055 301.213 314.055 301.481V314.33C314.055 315.417 313.801 316.404 313.301 317.288C312.793 318.18 312.119 318.883 311.271 319.406C310.415 319.913 309.48 320.16 308.457 320.16Z" fill="#2B2B2B"/>
<path d="M334.863 318.594C334.921 318.652 334.965 318.731 335.008 318.826C335.044 318.927 335.066 319.029 335.066 319.145C335.066 319.456 334.957 319.71 334.747 319.899C334.53 320.073 334.312 320.16 334.08 320.16C333.768 320.16 333.507 320.015 333.297 319.725L328.308 312.561H325.205V319.145C325.205 319.435 325.103 319.681 324.915 319.87C324.741 320.065 324.509 320.16 324.219 320.16C323.965 320.16 323.74 320.065 323.552 319.87C323.356 319.659 323.261 319.42 323.261 319.145V301.481C323.261 301.213 323.356 300.981 323.552 300.785C323.762 300.575 323.987 300.466 324.219 300.466H327.989C329.07 300.466 330.048 300.749 330.919 301.307C331.803 301.851 332.514 302.576 333.036 303.482C333.558 304.396 333.819 305.397 333.819 306.499C333.819 307.76 333.486 308.877 332.833 309.863C332.195 310.835 331.361 311.56 330.339 312.039L334.863 318.594ZM325.205 310.53H327.989C328.7 310.53 329.352 310.356 329.932 310.008C330.513 309.646 330.977 309.153 331.325 308.529C331.687 307.913 331.876 307.238 331.876 306.499C331.876 305.788 331.702 305.128 331.354 304.526C331.006 303.91 330.542 303.417 329.961 303.047C329.381 302.685 328.722 302.496 327.989 302.496H325.205V310.53Z" fill="#2B2B2B"/>
<path d="M343.258 320.16C343.004 320.16 342.779 320.065 342.591 319.87C342.395 319.681 342.301 319.435 342.301 319.145V301.452C342.301 301.147 342.395 300.901 342.591 300.727C342.801 300.553 343.026 300.466 343.258 300.466C343.62 300.466 343.896 300.633 344.07 300.959L351.988 315.374V301.452C351.988 301.147 352.082 300.901 352.278 300.727C352.489 300.553 352.713 300.466 352.945 300.466C353.192 300.466 353.417 300.567 353.612 300.756C353.801 300.952 353.903 301.184 353.903 301.452V319.145C353.903 319.478 353.794 319.725 353.583 319.899C353.388 320.073 353.177 320.16 352.945 320.16C352.554 320.16 352.286 320 352.133 319.667L344.215 305.252V319.145C344.215 319.478 344.106 319.725 343.896 319.899C343.7 320.073 343.49 320.16 343.258 320.16Z" fill="#2B2B2B"/>
<path d="M363.515 320.16C363.24 320.16 363.008 320.065 362.819 319.87C362.624 319.659 362.529 319.42 362.529 319.145V301.481C362.529 301.213 362.624 300.981 362.819 300.785C363.03 300.575 363.262 300.466 363.515 300.466H368.591C369.476 300.466 370.281 300.698 370.999 301.162C371.709 301.611 372.282 302.206 372.71 302.96C373.13 303.7 373.348 304.512 373.348 305.397C373.348 307.021 372.463 308.253 370.709 309.08C373.377 310.03 374.711 311.749 374.711 314.243C374.711 315.331 374.436 316.324 373.899 317.23C373.377 318.122 372.681 318.84 371.811 319.377C370.955 319.899 370.02 320.16 368.997 320.16H363.515ZM364.502 308.326H368.591C369.15 308.326 369.643 308.195 370.07 307.92C370.491 307.63 370.825 307.267 371.057 306.818C371.289 306.375 371.405 305.904 371.405 305.397C371.405 304.874 371.274 304.396 371.028 303.946C370.796 303.504 370.462 303.156 370.041 302.902C369.614 302.634 369.128 302.496 368.591 302.496H364.502V308.326ZM364.502 318.158H368.997C369.73 318.158 370.375 317.977 370.941 317.607C371.499 317.223 371.934 316.737 372.246 316.157C372.572 315.563 372.739 314.924 372.739 314.243C372.739 313.532 372.565 312.88 372.217 312.3C371.883 311.705 371.441 311.226 370.883 310.878C370.339 310.516 369.708 310.327 368.997 310.327H364.502V318.158Z" fill="#2B2B2B"/>
<path d="M383.774 320.16C383.52 320.16 383.295 320.065 383.106 319.87C382.932 319.681 382.845 319.435 382.845 319.145V301.481C382.845 301.213 382.932 300.981 383.106 300.785C383.281 300.575 383.498 300.466 383.774 300.466H393.548C393.78 300.466 393.99 300.567 394.186 300.756C394.375 300.952 394.476 301.205 394.476 301.51C394.476 301.8 394.367 302.047 394.157 302.235C393.961 302.409 393.758 302.496 393.548 302.496H384.731V309.312H391.547C391.793 309.312 392.018 309.414 392.214 309.602C392.424 309.776 392.533 310.023 392.533 310.327C392.533 310.639 392.424 310.878 392.214 311.052C391.996 311.226 391.779 311.313 391.547 311.313H384.731V318.158H393.548C393.78 318.158 393.99 318.26 394.186 318.449C394.375 318.644 394.476 318.884 394.476 319.174C394.476 319.485 394.367 319.725 394.157 319.899C393.961 320.073 393.758 320.16 393.548 320.16H383.774Z" fill="#2B2B2B"/>
<path d="M414.154 318.594C414.212 318.652 414.255 318.731 414.299 318.826C414.335 318.927 414.357 319.029 414.357 319.145C414.357 319.456 414.248 319.71 414.038 319.899C413.82 320.073 413.603 320.16 413.371 320.16C413.059 320.16 412.798 320.015 412.588 319.725L407.599 312.561H404.495V319.145C404.495 319.435 404.394 319.681 404.205 319.87C404.031 320.065 403.799 320.16 403.509 320.16C403.255 320.16 403.031 320.065 402.842 319.87C402.646 319.659 402.552 319.42 402.552 319.145V301.481C402.552 301.213 402.646 300.981 402.842 300.785C403.052 300.575 403.277 300.466 403.509 300.466H407.28C408.36 300.466 409.339 300.749 410.209 301.307C411.094 301.851 411.804 302.576 412.326 303.482C412.849 304.396 413.11 305.397 413.11 306.499C413.11 307.76 412.776 308.877 412.123 309.863C411.485 310.835 410.651 311.56 409.629 312.039L414.154 318.594ZM404.495 310.53H407.28C407.99 310.53 408.643 310.356 409.223 310.008C409.803 309.646 410.267 309.153 410.615 308.529C410.978 307.913 411.166 307.238 411.166 306.499C411.166 305.788 410.992 305.128 410.644 304.526C410.296 303.91 409.832 303.417 409.252 303.047C408.672 302.685 408.012 302.496 407.28 302.496H404.495V310.53Z" fill="#2B2B2B"/>
<path d="M427.509 320.16C426.465 320.16 425.515 319.899 424.666 319.377C423.832 318.84 423.165 318.129 422.665 317.259C422.179 316.375 421.94 315.403 421.94 314.359V306.267C421.94 305.186 422.186 304.207 422.694 303.337C423.194 302.453 423.869 301.757 424.724 301.249C425.573 300.727 426.501 300.466 427.509 300.466C428.531 300.466 429.459 300.712 430.293 301.191C431.142 301.655 431.816 302.315 432.323 303.163C432.824 303.997 433.078 304.947 433.078 306.006C433.078 306.339 432.976 306.586 432.788 306.76C432.592 306.934 432.367 307.021 432.12 307.021C431.845 307.021 431.613 306.927 431.424 306.731C431.25 306.542 431.163 306.296 431.163 306.006C431.163 305.331 430.997 304.729 430.67 304.207C430.358 303.685 429.923 303.272 429.365 302.96C428.821 302.656 428.205 302.496 427.509 302.496C426.813 302.496 426.182 302.67 425.623 303.018C425.08 303.366 424.645 303.83 424.318 304.41C424.006 304.99 423.854 305.614 423.854 306.267V314.359C423.854 315.04 424.006 315.664 424.318 316.244C424.645 316.824 425.08 317.288 425.623 317.636C426.182 317.984 426.813 318.158 427.509 318.158C428.205 318.158 428.821 317.984 429.365 317.636C429.923 317.288 430.358 316.824 430.67 316.244C430.997 315.664 431.163 315.04 431.163 314.359V312.387H428.031C427.777 312.387 427.552 312.292 427.364 312.097C427.168 311.886 427.074 311.654 427.074 311.4C427.074 311.074 427.168 310.82 427.364 310.646C427.574 310.472 427.799 310.385 428.031 310.385H432.12C432.389 310.385 432.614 310.487 432.788 310.675C432.976 310.871 433.078 311.11 433.078 311.4V314.359C433.078 315.403 432.824 316.375 432.323 317.259C431.816 318.129 431.149 318.84 430.322 319.377C429.488 319.899 428.553 320.16 427.509 320.16Z" fill="#2B2B2B"/>
<path d="M23.7928 167.346C23.713 167.6 23.5462 167.796 23.2997 167.927C23.0677 168.064 22.8211 168.093 22.5456 168.014L5.43302 163.605C5.18649 163.547 4.99071 163.402 4.85293 163.17C4.70066 162.923 4.6499 162.677 4.70791 162.445L5.75207 158.326C6.04211 157.267 6.56419 156.376 7.3183 155.658C8.07242 154.947 8.95705 154.454 9.9577 154.178C10.9656 153.888 12.0025 153.888 13.0612 154.178C14.1488 154.454 15.077 154.962 15.8456 155.716C16.5997 156.455 17.1363 157.325 17.4408 158.326C17.7309 159.312 17.7454 160.32 17.4698 161.343L16.6577 164.504L23.0386 166.128C23.3287 166.208 23.539 166.36 23.6767 166.592C23.8073 166.824 23.8508 167.078 23.7928 167.346ZM14.6854 163.982L15.4975 160.82C15.6715 160.146 15.6643 159.479 15.4685 158.819C15.28 158.167 14.9319 157.586 14.4244 157.079C13.924 156.579 13.3149 156.238 12.5971 156.064C11.901 155.875 11.2194 155.875 10.5378 156.064C9.86343 156.26 9.27609 156.6 8.76852 157.079C8.26819 157.543 7.92014 158.123 7.72436 158.819L6.91224 161.981L14.6854 163.982Z" fill="#2B2B2B"/>
<path d="M31.1069 138.917C31.1794 138.902 31.2664 138.888 31.3679 138.888C31.4622 138.873 31.5709 138.88 31.687 138.917C31.977 139.018 32.1655 139.199 32.267 139.468C32.3831 139.743 32.3903 139.983 32.296 140.193C32.1945 140.483 31.977 140.679 31.6289 140.773L23.1887 143.006L22.1445 145.907L28.3225 148.169C28.5907 148.271 28.7865 148.445 28.9025 148.691C29.0186 148.923 29.0258 149.177 28.9315 149.445C28.8518 149.677 28.6778 149.851 28.4095 149.967C28.1557 150.083 27.9019 150.098 27.6554 149.996L11.0649 143.963C10.8183 143.869 10.6298 143.695 10.5138 143.441C10.3833 143.195 10.3543 142.948 10.4268 142.716L11.732 139.178C12.1018 138.155 12.7036 137.321 13.5302 136.683C14.3424 136.045 15.2633 135.639 16.2857 135.465C17.3153 135.277 18.3377 135.371 19.3601 135.755C20.5638 136.183 21.5064 136.872 22.2025 137.814C22.8841 138.764 23.2757 139.801 23.3917 140.918L31.1069 138.917ZM20.2302 145.211L21.1874 142.6C21.4194 141.926 21.4702 141.259 21.3324 140.599C21.2019 139.946 20.8973 139.344 20.4333 138.801C19.9692 138.242 19.3891 137.836 18.693 137.582C18.0404 137.336 17.3588 137.278 16.6627 137.408C15.9666 137.524 15.3575 137.8 14.8354 138.221C14.2989 138.627 13.9001 139.178 13.6463 139.874L12.6891 142.484L20.2302 145.211Z" fill="#2B2B2B"/>
<path d="M34.841 134.051C34.725 134.305 34.5365 134.479 34.2899 134.573C34.0434 134.674 33.7678 134.653 33.4778 134.515L20.0778 120.738C19.7733 120.433 19.7153 120.085 19.9038 119.694C20.1213 119.273 20.4404 119.085 20.8609 119.143L39.9748 120.97C40.3011 121.129 40.4969 121.332 40.5549 121.579C40.6129 121.833 40.5911 122.072 40.4969 122.304C40.3808 122.5 40.2213 122.638 40.0328 122.71C39.8588 122.79 39.6847 122.826 39.5107 122.826L34.754 122.391L31.3315 129.555L34.667 132.949C34.8193 133.166 34.9063 133.369 34.928 133.558C34.9425 133.732 34.9135 133.899 34.841 134.051ZM29.8813 128.047L32.6657 122.217L23.3843 121.347L29.8813 128.047Z" fill="#2B2B2B"/>
<path d="M44.357 115.328C44.1975 115.582 43.9872 115.734 43.7189 115.792C43.4434 115.835 43.2041 115.785 42.9938 115.647C42.8198 115.553 42.6965 115.444 42.6167 115.328L37.686 107.381L28.3176 106.655C28.1653 106.641 27.9986 106.583 27.8245 106.481C27.578 106.329 27.433 106.126 27.3895 105.872C27.3315 105.604 27.375 105.365 27.5055 105.147C27.7013 104.821 27.9986 104.669 28.4046 104.683L36.4098 105.321L32.1462 98.5053C31.9359 98.1572 31.9286 97.8309 32.1172 97.5191C32.2767 97.2726 32.4797 97.113 32.7263 97.055C32.9583 96.9825 33.2048 97.0188 33.4514 97.1711C33.6254 97.2726 33.7632 97.3886 33.8574 97.5191L38.8172 105.495L48.1566 106.191C48.3886 106.235 48.5626 106.293 48.6786 106.365C48.9252 106.525 49.0702 106.735 49.1137 107.004C49.15 107.257 49.0992 107.489 48.9687 107.7C48.7947 107.99 48.5046 108.149 48.0986 108.164L40.0644 107.526L44.357 114.342C44.531 114.711 44.531 115.038 44.357 115.328Z" fill="#2B2B2B"/>
<path d="M54.7324 99.1506C54.5729 99.3681 54.3626 99.4914 54.0943 99.5276C53.8405 99.5494 53.6012 99.4696 53.3692 99.2956C53.1154 99.1071 52.9776 98.8823 52.9631 98.6285C52.9414 98.382 52.9994 98.1572 53.1372 97.9614L55.0804 95.38L42.4926 85.9826L40.5493 88.564C40.397 88.7815 40.194 88.9048 39.9402 88.941C39.6719 88.9628 39.4181 88.883 39.1861 88.709C38.9395 88.5205 38.8018 88.2957 38.78 88.0419C38.7655 87.7954 38.8235 87.5706 38.954 87.3748L43.9718 80.6748C44.1313 80.4645 44.3343 80.3413 44.5809 80.2978C44.8347 80.2615 45.0739 80.3268 45.306 80.5008C45.5598 80.6966 45.7048 80.9286 45.741 81.1969C45.7628 81.4507 45.7048 81.6755 45.567 81.864L43.6237 84.4454L56.2116 93.8428L58.1549 91.2614C58.3072 91.0511 58.5102 90.9278 58.764 90.8843C59.0105 90.8481 59.2571 90.9133 59.4891 91.0874C59.7211 91.2614 59.8662 91.4789 59.9242 91.7255C59.9822 91.9792 59.9242 92.2185 59.7501 92.4506L54.7324 99.1506Z" fill="#2B2B2B"/>
<path d="M60.8558 67.8919C60.7035 68.0659 60.5223 68.1674 60.3047 68.1819C60.0727 68.2037 59.8117 68.1674 59.5216 68.0659C59.043 67.9354 58.5572 67.9427 58.0714 68.0949C57.5711 68.2545 57.0852 68.5807 56.6212 69.0811C56.0266 69.7409 55.7438 70.4588 55.7801 71.2274C55.8236 71.9815 56.1281 72.6341 56.7082 73.1707C57.0417 73.4607 57.4478 73.6638 57.9264 73.7798C58.3904 73.8813 59.0575 73.8595 59.9277 73.7218L64.4523 73.0547C65.3225 72.9241 66.0621 72.8806 66.6857 72.9386C67.3238 72.9967 67.8749 73.1562 68.3389 73.4027C68.803 73.6348 69.2381 73.9465 69.6441 74.3309C70.2605 74.9109 70.6448 75.5998 70.8043 76.3902C70.9783 77.1878 70.9493 77.9854 70.7173 78.7975C70.4852 79.6096 70.0647 80.3493 69.4701 81.0019C68.7305 81.814 67.8894 82.3796 66.9467 82.6841C66.0186 82.9741 65.0904 83.0249 64.1623 82.8291C63.2197 82.6188 62.3278 82.133 61.4939 81.3789C61.3054 81.2049 61.1966 80.9873 61.1749 80.7118C61.1386 80.4218 61.2184 80.1752 61.4069 79.9577C61.5664 79.7837 61.7839 79.6967 62.074 79.6967C62.3495 79.6822 62.5888 79.7692 62.7991 79.9577C63.4589 80.5595 64.1043 80.9293 64.7424 81.0599C65.395 81.1759 66.0041 81.1106 66.5697 80.8568C67.1497 80.6103 67.6573 80.2405 68.1069 79.7547C68.7232 79.0803 69.035 78.3552 69.035 77.5793C69.0495 76.789 68.7885 76.1436 68.2519 75.6361C67.8604 75.288 67.4398 75.0705 66.9757 74.969C66.5117 74.8529 65.772 74.8747 64.7714 75.027L60.2467 75.7231C59.0285 75.8826 58.0424 75.8391 57.2883 75.607C56.5342 75.375 55.9106 75.0197 55.403 74.5339C54.6924 73.8958 54.2356 73.1852 54.0398 72.3876C53.8295 71.5972 53.8295 70.8068 54.0398 70.0092C54.2573 69.2188 54.6634 68.4937 55.258 67.8339C56.0556 66.9638 56.904 66.4272 57.8104 66.2096C58.724 65.9994 59.5941 66.0356 60.4207 66.3257C60.5948 66.3837 60.7543 66.4852 60.8848 66.6157C61.3126 66.9855 61.3054 67.4133 60.8558 67.8919Z" fill="#2B2B2B"/>
<path d="M154.339 252.966C154.433 256.381 153.882 259.52 152.679 262.399C151.736 264.77 150.735 266.329 149.698 267.091C148.212 268.164 146.174 268.7 143.578 268.7C141.149 268.7 138.967 267.642 137.038 265.524C135.457 263.755 134.196 261.326 133.246 258.23C132.361 255.286 131.861 251.022 131.73 245.432V223.816C131.73 219.835 131.759 215.564 131.824 211.018C131.824 209.691 131.839 208.27 131.875 206.747C131.904 205.42 131.919 204.695 131.919 204.572C131.919 204.158 131.89 203.419 131.824 202.346C131.759 201.236 131.73 200.497 131.73 200.112C131.73 199.51 131.955 199.01 132.397 198.597C132.84 198.155 133.325 197.966 133.862 198.031C135.16 198.126 135.776 198.822 135.711 200.112C135.871 201.439 135.95 203.18 135.95 205.326C135.573 222.866 135.457 233.119 135.617 236.092C136.03 245.221 136.233 249.84 136.233 249.935C136.675 253.785 137.089 256.41 137.466 257.802C138.097 260.173 138.952 261.863 140.025 262.87C141.512 264.357 142.919 265.053 144.246 264.959C145.884 264.865 147.088 264.328 147.849 263.349C149.271 261.384 150.184 258.353 150.598 254.249C150.757 252.574 150.757 249.13 150.598 243.909L150.547 238.318C150.387 232.343 150.344 228.015 150.409 225.332C150.409 223.722 150.409 220.089 150.409 214.426C150.155 205.804 150.01 201.142 149.981 200.446C149.945 199.88 150.119 199.344 150.503 198.836C150.946 198.234 151.482 197.937 152.113 197.937C153.28 197.937 154.006 198.568 154.296 199.83C154.448 200.62 154.499 203.339 154.433 207.98C154.404 210.133 154.339 215.108 154.245 222.917C154.31 234.323 154.339 240.312 154.339 240.878V252.966ZM204.56 201.773C204.56 203.607 204.517 215.332 204.422 236.948C204.422 237.956 204.502 241.211 204.654 246.708C204.691 247.469 204.691 248.745 204.654 250.551C204.625 252.603 204.611 253.944 204.611 254.575C204.611 255.054 204.654 256.25 204.749 258.179C204.814 259.666 204.828 260.789 204.799 261.544C204.64 264.197 204.517 265.713 204.422 266.097C204.038 267.83 203.219 268.7 201.957 268.7C200.978 268.7 199.898 266.677 198.73 262.638C192.821 241.371 189.645 229.632 189.202 227.42C186.991 216.449 185.874 210.844 185.838 210.59C185.649 209.234 185.504 208.205 185.41 207.508C185.316 206.747 185.221 206.515 185.127 206.798C185.098 206.827 185.192 208.125 185.41 210.684C185.57 213.273 185.649 214.948 185.649 215.709V240.639C185.649 245.7 185.678 250.326 185.744 254.532C185.874 263.059 185.874 267.388 185.744 267.518C185.367 268.178 184.736 268.563 183.851 268.657C182.93 268.715 182.314 268.447 182.002 267.852C181.748 267.41 181.618 266.032 181.618 263.726L181.763 231.256V219.357C181.828 209.372 181.857 203.702 181.857 202.346C181.857 199.467 182.568 198.01 183.989 197.981C185.258 197.952 186.411 199.721 187.448 203.288C187.513 203.571 188.383 207.24 190.058 214.288C191.733 221.394 192.712 225.477 192.995 226.514C193.219 227.369 193.756 229.269 194.604 232.206C195.496 235.396 196.207 237.97 196.743 239.928C197.338 242.082 198.02 244.641 198.781 247.607C199.571 250.645 199.999 252.269 200.057 252.494C200.122 252.777 200.311 253.553 200.63 254.815C200.753 255.416 200.848 255.888 200.913 256.236C201.072 257.026 201.181 257.28 201.246 256.997C201.304 255.924 201.304 254.865 201.246 253.821L200.819 224.527L200.579 210.445C200.514 204.601 200.485 201.287 200.485 200.497C200.514 198.916 201.152 198.126 202.385 198.126C203.835 198.126 204.56 199.344 204.56 201.773ZM236.487 217.747C236.487 218.791 236.595 220.937 236.82 224.193C236.878 227.26 236.943 230.248 237.009 233.156C237.009 234.671 236.835 240.784 236.487 251.494C236.363 259.745 236.537 264.023 237.009 264.342C239.568 265.669 241.983 265.133 244.26 262.733C246.348 260.55 248.038 257.323 249.336 253.06C251.228 246.962 251.91 239.174 251.373 229.69C250.895 220.72 249.459 213.737 247.059 208.741C244.659 203.781 241.62 201.302 237.959 201.302C237.132 201.331 236.704 201.519 236.675 201.867L236.487 217.747ZM233.216 238.601C233.187 237.905 233.137 234.751 233.071 229.124C233.013 224.418 232.977 220.684 232.977 217.936C233.108 215.064 233.013 211.221 232.694 206.421C232.506 202.846 232.426 200.605 232.455 199.685C232.455 198.358 234.246 197.792 237.814 197.981C241.229 198.01 244.18 199.213 246.674 201.584C248.415 203.259 250.061 206.21 251.605 210.445C253.759 216.231 254.832 224.527 254.832 235.331C254.832 240.769 254.564 245.127 254.027 248.412C252.889 255.648 250.815 261.181 247.813 265.002C246.044 267.315 243.201 268.526 239.286 268.657C235.899 268.78 233.898 268.497 233.26 267.801C232.789 267.518 232.774 257.787 233.216 238.601ZM285.758 265.292C286.106 265.575 288.049 265.64 291.588 265.481C296.265 265.133 298.607 265.778 298.607 267.424C298.795 268.563 294.974 268.954 287.136 268.606C283.974 268.7 282.219 268.606 281.871 268.323C281.712 268.07 281.617 266.112 281.588 262.443C281.559 261.689 281.574 259.288 281.639 255.242C281.697 250.66 281.733 247.607 281.733 246.091C281.639 223.939 281.371 210.083 280.929 204.521C280.61 200.323 281.545 198.169 283.72 198.075C287.324 197.915 289.724 197.915 290.928 198.075C291.116 198.075 291.624 198.075 292.443 198.075C293.357 198.075 294.068 198.111 294.575 198.169C296.758 198.329 297.613 198.959 297.135 200.069C296.823 200.859 294.401 201.185 289.884 201.062C286.41 200.939 284.699 201.207 284.764 201.867L285.098 215.949C285.098 218.951 285.112 221.953 285.141 224.955C285.207 227.101 287.244 227.92 291.261 227.42C292.052 227.478 292.726 228.065 293.299 229.167C293.959 230.531 293.625 231.176 292.298 231.111C289.804 230.987 288.274 230.973 287.701 231.067C286.787 231.227 286.265 231.321 286.142 231.35C285.888 231.444 285.758 231.669 285.758 232.017C285.286 249.05 285.047 258.259 285.047 259.651C285.083 263.03 285.315 264.908 285.758 265.292ZM327.974 202.578C327.749 202.831 327.669 206.878 327.734 214.716C327.763 222.489 327.829 226.405 327.923 226.47C327.988 226.499 328.496 226.311 329.438 225.897C330.613 225.397 331.606 224.824 332.426 224.193C333.695 223.185 334.543 222.301 334.985 221.539C335.87 220.147 336.407 218.218 336.602 215.76C336.885 212.599 336.392 209.582 335.13 206.704C334.181 204.615 332.614 203.165 330.439 202.346C329.206 201.903 328.38 201.976 327.974 202.578ZM334.558 246.236C334.717 246.773 336.726 253.074 340.583 265.147C340.895 266.162 341.004 266.888 340.91 267.33C340.721 268.244 339.967 268.7 338.64 268.7C337.85 268.7 337.117 267.852 336.457 266.141C336.298 265.764 335.921 264.487 335.319 262.305C334.623 259.811 334.101 258.02 333.753 256.946C332.868 254.198 332.078 251.276 331.382 248.18C331.099 246.853 330.483 244.01 329.533 239.645C328.619 235.287 328.017 233.214 327.734 233.438C327.481 233.09 327.749 242.205 328.539 260.789C328.51 265.082 328.401 267.388 328.206 267.707C327.705 268.621 326.864 268.925 325.697 268.606C324.747 268.352 324.276 267.17 324.276 265.053L324.841 248.745L324.558 229.552C324.558 226.898 324.464 222.946 324.276 217.703C324.21 215.992 324.196 214.208 324.225 212.345C324.261 210.387 324.276 209.307 324.276 209.118C324.21 207.668 324.181 206.58 324.181 205.848C324.051 203.919 324.087 201.976 324.276 200.018C324.399 198.785 325.472 198.169 327.495 198.169C329.649 198.169 331.65 198.706 333.521 199.786C335 200.671 336.407 202.012 337.734 203.81C339.351 206.718 340.213 209.481 340.344 212.106C340.504 214.984 340.119 217.921 339.206 220.923C338.698 222.569 337.705 224.222 336.218 225.897C335.08 227.224 333.898 228.254 332.665 228.979C331.113 229.806 330.388 230.328 330.483 230.545C330.425 230.639 331.78 235.867 334.558 246.236Z" stroke="black" stroke-width="1.33492"/>
<path d="M154.348 252.972C154.442 256.38 153.891 259.52 152.695 262.399C151.745 264.777 150.752 266.343 149.708 267.097C148.214 268.163 146.176 268.692 143.588 268.692C141.151 268.692 138.961 267.641 137.033 265.531C135.466 263.754 134.205 261.318 133.262 258.222C132.37 255.285 131.855 251.022 131.725 245.431V223.823C131.725 219.842 131.754 215.571 131.812 211.003C131.812 209.69 131.826 208.269 131.87 206.739C131.906 205.427 131.928 204.702 131.928 204.564C131.928 204.158 131.884 203.418 131.812 202.331C131.754 201.228 131.725 200.496 131.725 200.126C131.725 199.51 131.942 198.995 132.392 198.589C132.834 198.147 133.327 197.965 133.871 198.038C135.162 198.139 135.771 198.836 135.698 200.126C135.872 201.446 135.959 203.172 135.959 205.318C135.568 222.858 135.452 233.119 135.611 236.092C136.017 245.221 136.221 249.832 136.221 249.927C136.663 253.799 137.076 256.416 137.468 257.787C138.106 260.165 138.954 261.862 140.02 262.863C141.507 264.356 142.921 265.052 144.255 264.951C145.893 264.857 147.097 264.327 147.851 263.356C149.258 261.383 150.179 258.352 150.607 254.248C150.759 252.566 150.759 249.129 150.607 243.923L150.549 238.325C150.389 232.35 150.346 228.021 150.404 225.331C150.404 223.728 150.404 220.096 150.404 214.425C150.15 205.804 150.005 201.141 149.969 200.445C149.947 199.887 150.121 199.343 150.491 198.821C150.933 198.226 151.477 197.922 152.115 197.922C153.275 197.922 154 198.56 154.29 199.836C154.442 200.634 154.493 203.346 154.435 207.986C154.392 210.133 154.326 215.114 154.232 222.924C154.305 234.337 154.348 240.319 154.348 240.877V252.972Z" fill="#2B2B2B"/>
<path d="M204.576 201.78C204.576 203.622 204.525 215.34 204.431 236.933C204.431 237.963 204.503 241.219 204.663 246.708C204.677 247.462 204.677 248.738 204.663 250.536C204.619 252.61 204.605 253.952 204.605 254.568C204.605 255.054 204.648 256.265 204.75 258.194C204.808 259.665 204.822 260.789 204.808 261.558C204.648 264.212 204.525 265.72 204.431 266.083C204.039 267.823 203.22 268.693 201.965 268.693C200.979 268.693 199.906 266.677 198.746 262.631C192.829 241.364 189.646 229.624 189.203 227.42C186.999 216.456 185.875 210.851 185.839 210.597C185.643 209.227 185.498 208.19 185.404 207.494C185.302 206.74 185.208 206.508 185.114 206.798C185.092 206.841 185.186 208.132 185.404 210.684C185.556 213.28 185.636 214.948 185.636 215.702V240.646C185.636 245.693 185.672 250.326 185.752 254.539C185.868 263.066 185.868 267.388 185.752 267.504C185.36 268.186 184.722 268.563 183.838 268.664C182.924 268.722 182.315 268.447 182.01 267.852C181.757 267.41 181.633 266.039 181.633 263.733L181.749 231.248V219.357C181.822 209.379 181.865 203.709 181.865 202.331C181.865 199.474 182.569 198.024 183.983 197.981C185.259 197.944 186.419 199.714 187.463 203.288C187.521 203.578 188.377 207.247 190.045 214.281C191.727 221.402 192.713 225.477 193.003 226.521C193.213 227.376 193.743 229.269 194.598 232.206C195.483 235.396 196.201 237.97 196.745 239.921C197.339 242.067 198.021 244.634 198.775 247.607C199.565 250.645 199.993 252.269 200.051 252.48C200.124 252.77 200.319 253.546 200.631 254.8C200.747 255.424 200.841 255.902 200.921 256.25C201.073 257.026 201.182 257.28 201.24 257.004C201.298 255.924 201.298 254.858 201.24 253.814L200.805 224.519L200.573 210.452C200.515 204.594 200.486 201.28 200.486 200.504C200.522 198.923 201.153 198.126 202.371 198.126C203.836 198.126 204.576 199.344 204.576 201.78Z" fill="#2B2B2B"/>
<path d="M236.484 217.733C236.484 218.777 236.6 220.938 236.832 224.201C236.89 227.261 236.948 230.248 237.006 233.163C237.006 234.671 236.832 240.784 236.484 251.494C236.368 259.753 236.542 264.038 237.006 264.343C239.559 265.677 241.973 265.14 244.257 262.718C246.346 260.557 248.035 257.338 249.333 253.06C251.226 246.969 251.9 239.181 251.364 229.682C250.899 220.713 249.464 213.73 247.071 208.741C244.649 203.774 241.618 201.287 237.964 201.287C237.13 201.331 236.702 201.519 236.687 201.867L236.484 217.733ZM233.207 238.616C233.185 237.92 233.134 234.758 233.062 229.131C233.004 224.418 232.975 220.684 232.975 217.936C233.105 215.057 233.011 211.221 232.685 206.421C232.511 202.846 232.431 200.606 232.453 199.692C232.453 198.358 234.236 197.792 237.819 197.981C241.219 198.024 244.17 199.221 246.665 201.577C248.405 203.259 250.044 206.218 251.596 210.452C253.756 216.239 254.844 224.534 254.844 235.338C254.844 240.777 254.569 245.134 254.032 248.419C252.886 255.656 250.82 261.181 247.825 265.01C246.041 267.315 243.199 268.526 239.298 268.664C235.911 268.78 233.903 268.49 233.265 267.794C232.779 267.526 232.757 257.802 233.207 238.616Z" fill="#2B2B2B"/>
<path d="M285.762 265.299C286.11 265.575 288.053 265.633 291.592 265.473C296.269 265.125 298.611 265.778 298.611 267.417C298.799 268.555 294.971 268.954 287.125 268.606C283.971 268.7 282.223 268.606 281.875 268.316C281.716 268.069 281.621 266.111 281.585 262.457C281.563 261.688 281.585 259.281 281.643 255.235C281.701 250.652 281.73 247.607 281.73 246.098C281.629 223.939 281.36 210.09 280.918 204.535C280.606 200.322 281.542 198.169 283.731 198.067C287.328 197.915 289.721 197.915 290.925 198.067C291.113 198.067 291.621 198.067 292.433 198.067C293.361 198.067 294.072 198.111 294.579 198.183C296.762 198.343 297.61 198.966 297.131 200.069C296.82 200.866 294.405 201.193 289.88 201.055C286.4 200.939 284.696 201.214 284.776 201.867L285.095 215.934C285.095 218.95 285.109 221.96 285.153 224.954C285.211 227.101 287.248 227.927 291.273 227.42C292.041 227.478 292.723 228.058 293.303 229.16C293.956 230.538 293.622 231.183 292.288 231.103C289.793 230.987 288.263 230.98 287.705 231.074C286.791 231.234 286.269 231.328 286.139 231.364C285.885 231.444 285.762 231.654 285.762 232.002C285.276 249.042 285.037 258.251 285.037 259.644C285.073 263.03 285.312 264.915 285.762 265.299Z" fill="#2B2B2B"/>
<path d="M327.977 202.592C327.745 202.846 327.665 206.884 327.745 214.716C327.759 222.489 327.817 226.404 327.919 226.462C327.977 226.506 328.477 226.317 329.427 225.911C330.602 225.389 331.602 224.824 332.415 224.2C333.691 223.178 334.546 222.286 334.996 221.532C335.866 220.139 336.395 218.218 336.591 215.76C336.881 212.591 336.395 209.575 335.141 206.71C334.191 204.622 332.625 203.165 330.442 202.331C329.202 201.888 328.383 201.975 327.977 202.592ZM334.561 246.243C334.713 246.765 336.722 253.074 340.594 265.154C340.898 266.162 341.007 266.887 340.913 267.329C340.717 268.236 339.963 268.693 338.65 268.693C337.853 268.693 337.12 267.844 336.446 266.14C336.287 265.756 335.91 264.48 335.315 262.312C334.619 259.817 334.097 258.034 333.749 256.946C332.857 254.205 332.066 251.283 331.37 248.187C331.095 246.852 330.486 244.01 329.543 239.659C328.615 235.294 328.013 233.213 327.745 233.423C327.491 233.075 327.752 242.197 328.528 260.774C328.506 265.089 328.397 267.402 328.209 267.706C327.701 268.613 326.86 268.91 325.686 268.606C324.736 268.352 324.264 267.177 324.264 265.067L324.844 248.738L324.554 229.537C324.554 226.89 324.453 222.946 324.264 217.703C324.206 216.006 324.192 214.215 324.235 212.337C324.25 210.387 324.264 209.314 324.264 209.118C324.206 207.668 324.177 206.58 324.177 205.84C324.061 203.926 324.09 201.983 324.264 200.01C324.395 198.792 325.468 198.183 327.484 198.183C329.645 198.183 331.66 198.72 333.517 199.778C335.003 200.67 336.403 202.012 337.722 203.81C339.347 206.71 340.217 209.48 340.333 212.105C340.507 214.991 340.13 217.928 339.202 220.923C338.694 222.568 337.701 224.229 336.214 225.911C335.068 227.231 333.894 228.253 332.676 228.986C331.124 229.798 330.391 230.32 330.471 230.552C330.413 230.653 331.776 235.881 334.561 246.243Z" fill="#2B2B2B"/>
<path d="M73.2018 265.907C73.0423 265.486 73.0858 263.427 73.3178 259.729C73.5861 255.226 73.6804 252.296 73.6079 250.94C73.6079 248.468 73.6079 245.328 73.6079 241.514C73.4919 235.467 73.4121 230.637 73.3758 227.041C73.2163 214.533 73.1438 207.717 73.1438 206.593C73.064 202.032 73.064 198.588 73.1438 196.267C73.1438 194.222 73.1438 191.568 73.1438 188.32C73.1438 183.759 73.3541 181.185 73.7819 180.605C74.3765 179.851 75.1814 179.532 76.1893 179.648C77.1754 179.843 77.8715 180.431 78.2776 181.417C78.2776 181.533 78.2776 184.317 78.2776 189.77L77.9585 227.447C78.031 233.211 78.1035 237.787 78.1616 241.166C78.3138 243.834 78.3501 246.372 78.2776 248.765C78.2776 251.361 78.3936 252.673 78.6256 252.71C78.7416 252.753 79.735 246.938 81.6131 235.278C83.2736 225.96 84.4337 219.239 85.0936 215.12C85.8477 211.161 86.3408 208.739 86.5728 207.869C87.5952 203.91 89.0817 201.923 91.0395 201.923C92.8958 202.119 94.5635 206.535 96.0572 215.178C98.218 229.006 100.067 238.809 101.597 244.588C102.503 248.823 103.134 250.788 103.482 250.476C103.635 250.324 103.598 243.254 103.366 229.274L103.076 193.251L102.496 183.244C102.496 180.888 103.374 179.706 105.136 179.706C106.47 179.706 107.311 180.532 107.659 182.171C107.869 183.085 107.978 184.752 107.978 187.189L107.601 204.33L108.094 227.331L107.717 255.842C107.891 261.665 107.934 264.942 107.862 265.675C107.688 266.82 106.912 267.386 105.542 267.386C104.28 267.386 103.482 266.994 103.134 266.226C102.148 264.101 100.618 259.497 98.5516 252.42C98.0658 250.817 97.3914 247.75 96.5213 243.225C95.6294 239.977 94.9406 237.12 94.462 234.64C92.2722 218.883 91.1337 211.023 91.0395 211.059C89.3935 215.7 87.8055 224.307 86.2828 236.873C85.3691 243.196 84.0929 249.026 82.4542 254.363C81.1925 258.423 79.8583 262.216 78.4516 265.733C77.9658 266.871 77.0376 267.422 75.6672 267.386C74.3692 267.342 73.5499 266.856 73.2018 265.907Z" fill="#2B2B2B"/>
<path d="M430.997 265.292C431.345 265.575 433.289 265.64 436.827 265.481C441.504 265.133 443.846 265.778 443.846 267.424C444.035 268.563 440.213 268.954 432.375 268.606C429.214 268.7 427.459 268.606 427.111 268.323C426.951 268.069 426.857 266.112 426.828 262.443C426.799 261.688 426.813 259.288 426.879 255.242C426.937 250.66 426.973 247.607 426.973 246.091C426.879 223.939 426.603 210.083 426.161 204.521C425.849 200.323 426.777 198.169 428.96 198.075C432.564 197.915 434.964 197.915 436.167 198.075C436.356 198.075 436.863 198.075 437.683 198.075C438.596 198.075 439.307 198.111 439.815 198.169C441.997 198.329 442.846 198.959 442.374 200.069C442.062 200.859 439.641 201.185 435.123 201.062C431.65 200.939 429.939 201.207 430.004 201.867L430.337 215.949C430.337 218.951 430.352 221.953 430.381 224.955C430.446 227.101 432.484 227.92 436.501 227.42C437.284 227.478 437.966 228.065 438.538 229.167C439.198 230.531 438.865 231.176 437.538 231.111C435.043 230.987 433.513 230.973 432.941 231.067C432.027 231.227 431.505 231.321 431.382 231.35C431.128 231.444 430.997 231.669 430.997 232.017C430.526 249.05 430.287 258.259 430.287 259.651C430.323 263.03 430.555 264.908 430.997 265.292ZM473.213 202.578C472.988 202.831 472.909 206.878 472.974 214.716C473.003 222.489 473.068 226.405 473.162 226.47C473.228 226.499 473.735 226.31 474.678 225.897C475.853 225.397 476.846 224.824 477.665 224.193C478.927 223.185 479.783 222.301 480.225 221.539C481.11 220.147 481.646 218.218 481.835 215.76C482.125 212.599 481.632 209.582 480.37 206.704C479.42 204.615 477.854 203.165 475.678 202.346C474.446 201.903 473.619 201.976 473.213 202.578ZM479.797 246.236C479.957 246.773 481.965 253.074 485.823 265.147C486.135 266.162 486.243 266.888 486.149 267.33C485.961 268.243 485.206 268.7 483.872 268.7C483.089 268.7 482.357 267.852 481.697 266.141C481.537 265.764 481.16 264.487 480.558 262.305C479.862 259.81 479.34 258.019 478.992 256.946C478.108 254.198 477.317 251.276 476.621 248.18C476.338 246.853 475.722 244.01 474.772 239.645C473.858 235.287 473.257 233.213 472.974 233.438C472.72 233.09 472.988 242.205 473.779 260.789C473.75 265.082 473.641 267.388 473.445 267.707C472.945 268.621 472.104 268.925 470.936 268.606C469.986 268.352 469.515 267.17 469.515 265.053L470.081 248.745L469.798 229.552C469.798 226.898 469.704 222.946 469.515 217.703C469.45 215.992 469.435 214.208 469.464 212.345C469.501 210.387 469.515 209.307 469.515 209.118C469.45 207.668 469.421 206.58 469.421 205.848C469.29 203.919 469.327 201.976 469.515 200.018C469.638 198.785 470.711 198.169 472.735 198.169C474.888 198.169 476.889 198.706 478.76 199.786C480.239 200.671 481.646 202.012 482.973 203.81C484.59 206.718 485.453 209.481 485.583 212.106C485.743 214.984 485.359 217.921 484.445 220.923C483.937 222.569 482.944 224.222 481.458 225.897C480.319 227.224 479.137 228.254 477.905 228.979C476.353 229.805 475.628 230.328 475.722 230.545C475.657 230.639 477.02 235.867 479.797 246.236ZM532.484 268.7C531.57 268.86 530.7 268.12 529.88 266.474C527.415 261.609 525 255.924 522.629 249.412C519.054 237.593 517.111 232.206 516.799 233.25C516.799 233.25 516.799 234.229 516.799 236.186C516.828 236.658 516.857 237.354 516.894 238.275C516.952 239.507 516.988 240.421 516.988 241.023C516.705 249.898 516.466 255.554 516.277 257.99C516.241 258.716 516.227 259.774 516.227 261.166C516.227 262.965 516.227 264.074 516.227 264.487C516.198 267.294 515.61 268.7 514.472 268.7C513.116 268.7 512.434 267.047 512.434 263.726C512.434 263.03 512.485 261.355 512.579 258.701C512.703 255.859 512.782 253.089 512.819 250.406C512.848 248.354 512.913 245.432 513.007 241.639C513.13 238.13 513.196 236.078 513.196 235.476C513.196 234.78 513.065 228.841 512.819 217.653C512.565 206.595 512.434 200.845 512.434 200.402C512.434 199.322 513.051 198.582 514.283 198.169C515.451 197.792 516.321 198.031 516.894 198.88C516.952 199.01 516.988 202.483 516.988 209.307C516.546 220.089 516.466 225.455 516.749 225.426C517.162 225.397 518.627 222.598 521.157 217.036C522.042 215.267 523.057 213.179 524.188 210.779C525.392 208.35 526.197 206.718 526.61 205.899C529.141 200.743 530.939 198.154 532.012 198.125C533.404 198.125 534.101 198.771 534.101 200.069C534.035 200.54 533.578 201.49 532.723 202.911C531.744 204.586 531.157 205.594 530.968 205.942C530.714 206.515 530.12 207.632 529.17 209.307C528.191 210.982 527.604 212.04 527.415 212.483C521.665 223.294 518.975 228.805 519.359 229.03C519.323 229.631 521.302 235.476 525.283 246.57C526.61 250.109 528.474 254.278 530.874 259.078C532.926 263.095 534.006 265.401 534.101 266.003C534.318 267.518 533.781 268.418 532.484 268.7Z" stroke="black" stroke-width="1.33492"/>
<path d="M431 265.299C431.348 265.575 433.291 265.633 436.83 265.473C441.507 265.125 443.849 265.778 443.849 267.417C444.038 268.555 440.209 268.954 432.363 268.606C429.209 268.7 427.462 268.606 427.113 268.316C426.954 268.069 426.86 266.111 426.823 262.457C426.802 261.688 426.823 259.281 426.881 255.235C426.939 250.652 426.968 247.607 426.968 246.098C426.867 223.939 426.599 210.09 426.156 204.535C425.845 200.322 426.78 198.169 428.97 198.067C432.566 197.915 434.959 197.915 436.163 198.067C436.351 198.067 436.859 198.067 437.671 198.067C438.599 198.067 439.31 198.111 439.817 198.183C442 198.343 442.848 198.966 442.37 200.069C442.058 200.866 439.643 201.193 435.119 201.055C431.638 200.939 429.934 201.214 430.014 201.867L430.333 215.934C430.333 218.95 430.347 221.96 430.391 224.954C430.449 227.101 432.487 227.927 436.511 227.42C437.28 227.478 437.961 228.058 438.541 229.16C439.194 230.538 438.86 231.183 437.526 231.103C435.032 230.987 433.502 230.98 432.943 231.074C432.03 231.234 431.508 231.328 431.377 231.364C431.123 231.444 431 231.654 431 232.002C430.514 249.042 430.275 258.251 430.275 259.644C430.311 263.03 430.551 264.915 431 265.299Z" fill="#2B2B2B"/>
<path d="M473.216 202.592C472.984 202.846 472.904 206.884 472.984 214.716C472.999 222.489 473.057 226.404 473.158 226.462C473.216 226.506 473.716 226.317 474.666 225.911C475.841 225.389 476.842 224.824 477.654 224.2C478.93 223.178 479.786 222.286 480.235 221.532C481.105 220.139 481.635 218.218 481.83 215.76C482.12 212.591 481.635 209.575 480.38 206.71C479.43 204.622 477.864 203.165 475.681 202.331C474.442 201.888 473.622 201.975 473.216 202.592ZM479.8 246.243C479.952 246.765 481.961 253.074 485.833 265.154C486.138 266.162 486.246 266.887 486.152 267.329C485.956 268.236 485.202 268.693 483.89 268.693C483.092 268.693 482.36 267.844 481.685 266.14C481.526 265.756 481.149 264.48 480.554 262.312C479.858 259.817 479.336 258.034 478.988 256.946C478.096 254.205 477.306 251.283 476.61 248.187C476.334 246.852 475.725 244.01 474.782 239.659C473.854 235.294 473.252 233.213 472.984 233.423C472.73 233.075 472.991 242.197 473.767 260.774C473.745 265.089 473.637 267.402 473.448 267.706C472.941 268.613 472.099 268.91 470.925 268.606C469.975 268.352 469.504 267.177 469.504 265.067L470.084 248.738L469.794 229.537C469.794 226.89 469.692 222.946 469.504 217.703C469.446 216.006 469.431 214.215 469.475 212.337C469.489 210.387 469.504 209.314 469.504 209.118C469.446 207.668 469.417 206.58 469.417 205.84C469.301 203.926 469.33 201.983 469.504 200.01C469.634 198.792 470.707 198.183 472.723 198.183C474.884 198.183 476.9 198.72 478.756 199.778C480.242 200.67 481.642 202.012 482.962 203.81C484.586 206.71 485.456 209.48 485.572 212.105C485.746 214.991 485.369 217.928 484.441 220.923C483.933 222.568 482.94 224.229 481.453 225.911C480.308 227.231 479.133 228.253 477.915 228.986C476.363 229.798 475.631 230.32 475.71 230.552C475.652 230.653 477.016 235.881 479.8 246.243Z" fill="#2B2B2B"/>
<path d="M532.491 268.693C531.563 268.867 530.693 268.135 529.881 266.489C527.401 261.616 524.987 255.924 522.63 249.405C519.048 237.593 517.105 232.206 516.8 233.25C516.8 233.25 516.8 234.229 516.8 236.179C516.836 236.665 516.865 237.361 516.887 238.268C516.945 239.508 516.974 240.428 516.974 241.023C516.699 249.898 516.467 255.554 516.278 257.991C516.235 258.73 516.22 259.782 516.22 261.152C516.22 262.972 516.22 264.081 516.22 264.488C516.198 267.294 515.618 268.693 514.48 268.693C513.124 268.693 512.449 267.04 512.449 263.733C512.449 263.037 512.486 261.37 512.565 258.716C512.696 255.859 512.783 253.089 512.827 250.42C512.841 248.354 512.899 245.424 513.001 241.632C513.131 238.137 513.204 236.085 513.204 235.483C513.204 234.787 513.073 228.841 512.827 217.646C512.573 206.588 512.449 200.838 512.449 200.388C512.449 199.329 513.059 198.59 514.277 198.184C515.451 197.799 516.322 198.031 516.887 198.88C516.945 199.018 516.974 202.498 516.974 209.321C516.546 220.096 516.467 225.462 516.742 225.419C517.163 225.404 518.635 222.605 521.151 217.036C522.035 215.26 523.051 213.172 524.196 210.772C525.393 208.335 526.198 206.711 526.604 205.899C529.134 200.758 530.94 198.169 532.027 198.126C533.398 198.126 534.087 198.778 534.087 200.069C534.029 200.533 533.572 201.483 532.723 202.911C531.737 204.594 531.157 205.609 530.983 205.957C530.708 206.522 530.099 207.639 529.156 209.321C528.184 210.989 527.604 212.04 527.416 212.483C521.673 223.294 518.983 228.805 519.352 229.015C519.331 229.639 521.303 235.483 525.269 246.563C526.604 250.101 528.467 254.278 530.867 259.093C532.934 263.095 534.007 265.401 534.087 265.996C534.319 267.526 533.782 268.418 532.491 268.693Z" fill="#2B2B2B"/>
<path d="M365.874 265.907C365.715 265.486 365.758 263.427 365.99 259.729C366.258 255.226 366.353 252.296 366.28 250.94C366.28 248.468 366.28 245.328 366.28 241.514C366.164 235.467 366.084 230.637 366.048 227.041C365.889 214.533 365.816 207.717 365.816 206.593C365.736 202.032 365.736 198.588 365.816 196.267C365.816 194.222 365.816 191.568 365.816 188.32C365.816 183.759 366.026 181.185 366.454 180.605C367.049 179.851 367.854 179.532 368.862 179.648C369.848 179.843 370.544 180.431 370.95 181.417C370.95 181.533 370.95 184.317 370.95 189.77L370.631 227.447C370.703 233.211 370.776 237.787 370.834 241.166C370.986 243.834 371.022 246.372 370.95 248.765C370.95 251.361 371.066 252.673 371.298 252.71C371.414 252.753 372.407 246.938 374.285 235.278C375.946 225.96 377.106 219.239 377.766 215.12C378.52 211.161 379.013 208.739 379.245 207.869C380.268 203.91 381.754 201.923 383.712 201.923C385.568 202.119 387.236 206.535 388.73 215.178C390.89 229.006 392.739 238.809 394.269 244.588C395.176 248.823 395.807 250.788 396.155 250.476C396.307 250.324 396.271 243.254 396.039 229.274L395.749 193.251L395.169 183.244C395.169 180.888 396.046 179.706 397.808 179.706C399.142 179.706 399.983 180.532 400.331 182.171C400.542 183.085 400.65 184.752 400.65 187.189L400.273 204.33L400.766 227.331L400.389 255.842C400.563 261.665 400.607 264.942 400.534 265.675C400.36 266.82 399.584 267.386 398.214 267.386C396.952 267.386 396.155 266.994 395.807 266.226C394.82 264.101 393.291 259.497 391.224 252.42C390.738 250.817 390.064 247.75 389.194 243.225C388.302 239.977 387.613 237.12 387.134 234.64C384.945 218.883 383.806 211.023 383.712 211.059C382.066 215.7 380.478 224.307 378.955 236.873C378.041 243.196 376.765 249.026 375.127 254.363C373.865 258.423 372.531 262.216 371.124 265.733C370.638 266.871 369.71 267.422 368.34 267.386C367.042 267.342 366.222 266.856 365.874 265.907Z" fill="#2B2B2B"/>
</svg>
